<svg aria-hidden="true" style="position: absolute; width: 0; height: 0; overflow: hidden;" version="1.1" xmlns="http://www.w3.org/2000/svg" xmlns:xlink="http://www.w3.org/1999/xlink">
<defs>
<symbol id="icon-archive" viewBox="0 0 20 20">
<path d="M3.333 7.5h13.333v9.167h-13.333zM0.833 1.667c-0.46 0-0.833 0.373-0.833 0.833v4.167c0 0.46 0.373 0.833 0.833 0.833h0.833v10c0 0.46 0.373 0.833 0.833 0.833h15c0.46 0 0.833-0.373 0.833-0.833v-10h0.833c0.46 0 0.833-0.373 0.833-0.833v-4.167c0-0.46-0.373-0.833-0.833-0.833zM1.667 3.333h16.667v2.5h-16.667zM8.333 10.833h3.333c0.46 0 0.833-0.373 0.833-0.833s-0.373-0.833-0.833-0.833h-3.333c-0.46 0-0.833 0.373-0.833 0.833s0.373 0.833 0.833 0.833z"></path>
</symbol>
<symbol id="icon-chevron-down" viewBox="0 0 20 20">
<path d="M4.411 8.089l5 5c0.326 0.326 0.853 0.326 1.178 0l5-5c0.326-0.326 0.326-0.853 0-1.178s-0.853-0.326-1.178 0l-4.411 4.411-4.411-4.411c-0.326-0.326-0.853-0.326-1.178 0s-0.326 0.853 0 1.178z"></path>
</symbol>
<symbol id="icon-credit-card" viewBox="0 0 20 20">
<path d="M2.5 2.5c-0.69 0-1.317 0.281-1.767 0.732s-0.733 1.077-0.733 1.768v10c0 0.69 0.281 1.317 0.733 1.767s1.077 0.733 1.767 0.733h15c0.69 0 1.317-0.281 1.767-0.733s0.733-1.077 0.733-1.767v-10c0-0.69-0.281-1.317-0.733-1.767s-1.078-0.732-1.767-0.732zM18.333 7.5h-16.667v-2.5c0-0.23 0.093-0.438 0.244-0.589s0.359-0.244 0.589-0.244h15c0.23 0 0.438 0.092 0.589 0.244s0.244 0.359 0.244 0.589zM1.667 9.167h16.667v5.833c0 0.23-0.093 0.438-0.244 0.589s-0.359 0.244-0.589 0.244h-15c-0.23 0-0.438-0.093-0.589-0.244s-0.244-0.359-0.244-0.589z"></path>
</symbol>
<symbol id="icon-delete" viewBox="0 0 20 20">
<path d="M17.5 4.167c0.23 0 0.438 0.093 0.589 0.244s0.244 0.359 0.244 0.589v10c0 0.23-0.093 0.438-0.244 0.589s-0.359 0.244-0.589 0.244h-10.455l-5.104-5.833 5.104-5.833zM17.5 2.5h-10.833c-0.25 0-0.473 0.11-0.628 0.284l-5.833 6.667c-0.277 0.317-0.272 0.785 0 1.098l5.833 6.667c0.165 0.188 0.395 0.284 0.628 0.285h10.833c0.69 0 1.317-0.281 1.767-0.733s0.733-1.077 0.733-1.767v-10c0-0.69-0.281-1.317-0.733-1.768s-1.078-0.732-1.767-0.732zM9.411 8.089l1.911 1.911-1.911 1.911c-0.326 0.326-0.326 0.853 0 1.178s0.853 0.326 1.178 0l1.911-1.911 1.911 1.911c0.326 0.326 0.853 0.326 1.178 0s0.326-0.853 0-1.178l-1.911-1.911 1.911-1.911c0.326-0.326 0.326-0.853 0-1.178s-0.853-0.326-1.178 0l-1.911 1.911-1.911-1.911c-0.326-0.326-0.853-0.326-1.178 0s-0.326 0.853 0 1.178z"></path>
</symbol>
<symbol id="icon-facebook" viewBox="0 0 20 20">
<path d="M14.167 2.5v1.667h-1.667c-0.46 0-0.877 0.188-1.178 0.488s-0.488 0.718-0.488 1.178v2.5c0 0.46 0.373 0.833 0.833 0.833h2.266l-0.417 1.667h-1.849c-0.46 0-0.833 0.373-0.833 0.833v5.833h-1.667v-5.833c0-0.46-0.373-0.833-0.833-0.833h-1.667v-1.667h1.667c0.46 0 0.833-0.373 0.833-0.833v-2.5c0-0.921 0.373-1.752 0.977-2.357s1.436-0.977 2.357-0.977zM15 0.833h-2.5c-1.381 0-2.632 0.561-3.536 1.464s-1.464 2.155-1.464 3.536v1.667h-1.667c-0.46 0-0.833 0.373-0.833 0.833v3.333c0 0.46 0.373 0.833 0.833 0.833h1.667v5.833c0 0.46 0.373 0.833 0.833 0.833h3.333c0.46 0 0.833-0.373 0.833-0.833v-5.833h1.667c0.388 0 0.715-0.266 0.808-0.631l0.833-3.333c0.112-0.447-0.16-0.899-0.607-1.011-0.069-0.018-0.139-0.026-0.202-0.025h-2.5v-1.667h2.5c0.46 0 0.833-0.373 0.833-0.833v-3.333c0-0.46-0.373-0.833-0.833-0.833z"></path>
</symbol>
<symbol id="icon-instagram" viewBox="0 0 20 20">
<path d="M5.833 0.833c-1.381 0-2.632 0.561-3.536 1.464s-1.464 2.155-1.464 3.536v8.333c0 1.381 0.561 2.632 1.464 3.536s2.155 1.464 3.536 1.464h8.333c1.381 0 2.632-0.561 3.536-1.464s1.464-2.155 1.464-3.536v-8.333c0-1.381-0.561-2.632-1.464-3.536s-2.155-1.464-3.536-1.464zM5.833 2.5h8.333c0.921 0 1.752 0.373 2.357 0.977s0.977 1.436 0.977 2.357v8.333c0 0.921-0.372 1.752-0.977 2.357s-1.436 0.977-2.357 0.977h-8.333c-0.921 0-1.753-0.373-2.357-0.977s-0.977-1.436-0.977-2.357v-8.333c0-0.921 0.373-1.753 0.977-2.357s1.436-0.977 2.357-0.977zM14.158 9.353c-0.125-0.81-0.476-1.548-0.995-2.139-0.628-0.717-1.503-1.221-2.508-1.37-0.387-0.062-0.808-0.064-1.231-0.002-1.138 0.168-2.101 0.784-2.735 1.639s-0.944 1.956-0.775 3.093 0.784 2.101 1.639 2.735 1.956 0.944 3.093 0.775 2.101-0.784 2.735-1.639 0.944-1.956 0.775-3.093zM12.509 9.598c0.102 0.683-0.083 1.341-0.465 1.856s-0.958 0.883-1.641 0.983-1.341-0.083-1.856-0.465-0.883-0.958-0.983-1.641 0.083-1.341 0.465-1.856 0.958-0.882 1.641-0.983c0.261-0.038 0.512-0.035 0.725-0.002 0.617 0.092 1.138 0.392 1.515 0.822 0.313 0.357 0.525 0.803 0.6 1.286zM14.583 6.25c0.46 0 0.833-0.373 0.833-0.833s-0.373-0.833-0.833-0.833-0.833 0.373-0.833 0.833 0.373 0.833 0.833 0.833z"></path>
</symbol>
<symbol id="icon-mail" viewBox="0 0 20 20">
<path d="M2.5 6.601l7.023 4.916c0.283 0.196 0.662 0.205 0.956 0l7.022-4.916v8.399c0 0.227-0.092 0.434-0.246 0.588s-0.361 0.246-0.588 0.246h-13.333c-0.227 0-0.434-0.092-0.587-0.246s-0.246-0.361-0.246-0.588zM0.833 4.986c0 0.008 0 0.017 0 0.025v9.989c0 0.69 0.283 1.316 0.733 1.767s1.077 0.733 1.767 0.733h13.333c0.69 0 1.316-0.283 1.767-0.733s0.733-1.077 0.733-1.767v-9.99c0-0.008 0-0.017 0-0.025-0.004-0.684-0.286-1.304-0.733-1.752-0.451-0.45-1.077-0.733-1.767-0.733h-13.333c-0.69 0-1.316 0.283-1.767 0.733-0.448 0.448-0.729 1.068-0.733 1.752zM17.412 4.628l-7.412 5.188-7.412-5.188c0.040-0.080 0.093-0.152 0.157-0.216 0.154-0.154 0.362-0.246 0.588-0.246h13.333c0.227 0 0.434 0.092 0.588 0.246 0.063 0.063 0.117 0.137 0.157 0.216z"></path>
</symbol>
<symbol id="icon-map-pin" viewBox="0 0 20 20">
<path d="M18.333 8.333c0-2.301-0.933-4.386-2.441-5.893s-3.592-2.441-5.893-2.441-4.386 0.933-5.893 2.441-2.441 3.592-2.441 5.893c0 0.474 0.044 0.94 0.125 1.397 0.228 1.29 0.749 2.503 1.402 3.6 2.277 3.826 6.344 6.53 6.344 6.53 0.276 0.181 0.637 0.191 0.924 0 0 0 4.068-2.704 6.344-6.53 0.652-1.097 1.173-2.31 1.402-3.6 0.082-0.457 0.126-0.923 0.126-1.397zM16.667 8.333c0 0.37-0.034 0.739-0.099 1.107-0.184 1.042-0.614 2.065-1.193 3.038-1.593 2.678-4.197 4.789-5.308 5.617-1.165-0.763-3.823-2.897-5.442-5.617-0.579-0.973-1.009-1.997-1.193-3.038-0.064-0.367-0.098-0.737-0.098-1.107 0-1.841 0.745-3.507 1.953-4.714s2.873-1.952 4.714-1.952 3.507 0.745 4.714 1.952 1.953 2.873 1.953 4.714zM13.333 8.333c0-0.92-0.374-1.755-0.977-2.357s-1.437-0.977-2.357-0.977-1.755 0.374-2.357 0.977-0.977 1.437-0.977 2.357 0.374 1.755 0.977 2.357 1.437 0.977 2.357 0.977 1.755-0.374 2.357-0.977 0.977-1.437 0.977-2.357zM11.667 8.333c0 0.461-0.186 0.876-0.488 1.178s-0.717 0.488-1.178 0.488-0.876-0.186-1.178-0.488-0.488-0.717-0.488-1.178 0.186-0.876 0.488-1.178 0.718-0.488 1.178-0.488 0.876 0.186 1.178 0.488 0.488 0.717 0.488 1.178z"></path>
</symbol>
<symbol id="icon-minus" viewBox="0 0 20 20">
<path d="M4.167 10.833h11.667c0.46 0 0.833-0.373 0.833-0.833s-0.373-0.833-0.833-0.833h-11.667c-0.46 0-0.833 0.373-0.833 0.833s0.373 0.833 0.833 0.833z"></path>
</symbol>
<symbol id="icon-phone" viewBox="0 0 20 20">
<path d="M19.167 14.1c0.013-0.595-0.197-1.17-0.561-1.619-0.383-0.472-0.941-0.806-1.604-0.9-0.667-0.082-1.412-0.262-2.155-0.538-0.361-0.133-0.744-0.182-1.12-0.145-0.553 0.053-1.089 0.291-1.516 0.712l-0.6 0.6c-1.475-0.931-2.8-2.223-3.819-3.824l0.605-0.605c0.268-0.275 0.469-0.605 0.589-0.963 0.177-0.527 0.178-1.113-0.032-1.676-0.241-0.628-0.432-1.37-0.537-2.163-0.087-0.595-0.38-1.121-0.803-1.503-0.449-0.405-1.047-0.649-1.689-0.642h-2.497c-0.073 0-0.152 0.003-0.228 0.010-0.687 0.063-1.285 0.398-1.694 0.888s-0.632 1.139-0.569 1.832c0.25 2.563 1.138 5.202 2.68 7.585 1.252 2.011 3.040 3.853 5.248 5.255 2.14 1.414 4.737 2.385 7.572 2.692 0.077 0.008 0.159 0.011 0.24 0.011 0.69-0.003 1.315-0.286 1.765-0.739s0.728-1.081 0.725-1.768zM17.5 14.1v2.5c0.001 0.233-0.091 0.442-0.242 0.593s-0.358 0.246-0.588 0.247c-2.624-0.28-4.968-1.159-6.886-2.427-2.023-1.286-3.632-2.948-4.752-4.745-1.414-2.183-2.212-4.567-2.437-6.865-0.020-0.223 0.053-0.438 0.191-0.603s0.336-0.275 0.565-0.296l2.573-0.004c0.226-0.002 0.423 0.078 0.572 0.213 0.142 0.128 0.24 0.305 0.269 0.507 0.118 0.893 0.34 1.764 0.631 2.521 0.067 0.18 0.067 0.373 0.008 0.548-0.041 0.121-0.109 0.234-0.202 0.329l-1.052 1.051c-0.27 0.27-0.316 0.678-0.135 1.001 1.32 2.321 3.199 4.131 5.317 5.315 0.331 0.185 0.735 0.12 0.996-0.138l1.058-1.058c0.138-0.137 0.314-0.214 0.498-0.232 0.127-0.012 0.258 0.004 0.382 0.050 0.852 0.318 1.725 0.53 2.528 0.628 0.201 0.028 0.385 0.138 0.512 0.296 0.123 0.151 0.193 0.343 0.188 0.568z"></path>
</symbol>
<symbol id="icon-plus" viewBox="0 0 20 20">
<path d="M4.167 10.833h5v5c0 0.46 0.373 0.833 0.833 0.833s0.833-0.373 0.833-0.833v-5h5c0.46 0 0.833-0.373 0.833-0.833s-0.373-0.833-0.833-0.833h-5v-5c0-0.46-0.373-0.833-0.833-0.833s-0.833 0.373-0.833 0.833v5h-5c-0.46 0-0.833 0.373-0.833 0.833s0.373 0.833 0.833 0.833z"></path>
</symbol>
<symbol id="icon-search" viewBox="0 0 20 20">
<path d="M13.368 13.213c-0.028 0.022-0.056 0.046-0.083 0.072s-0.050 0.053-0.072 0.082c-1.048 1.011-2.474 1.632-4.046 1.632-1.611 0-3.068-0.652-4.125-1.708s-1.708-2.514-1.708-4.125 0.652-3.068 1.708-4.125 2.514-1.708 4.125-1.708 3.068 0.652 4.125 1.708 1.708 2.514 1.708 4.125c0 1.572-0.621 2.998-1.633 4.047zM18.089 16.911l-3.063-3.063c1.026-1.283 1.64-2.911 1.64-4.682 0-2.071-0.84-3.947-2.197-5.303s-3.232-2.197-5.303-2.197-3.947 0.84-5.303 2.197-2.197 3.232-2.197 5.303 0.84 3.947 2.197 5.303 3.233 2.197 5.303 2.197c1.771 0 3.398-0.614 4.682-1.64l3.063 3.063c0.326 0.326 0.853 0.326 1.178 0s0.326-0.853 0-1.178z"></path>
</symbol>
<symbol id="icon-shopping-bag" viewBox="0 0 20 20">
<path d="M15.833 4.167h-11.667l1.25-1.667h9.167zM18.162 4.493l-2.495-3.327c-0.163-0.218-0.412-0.333-0.667-0.333h-10c-0.272 0-0.513 0.13-0.667 0.333l-2.495 3.327c-0.036 0.047-0.068 0.097-0.093 0.152-0.054 0.114-0.080 0.236-0.079 0.355v11.667c0 0.69 0.281 1.317 0.732 1.767s1.078 0.733 1.768 0.733h11.667c0.69 0 1.317-0.281 1.768-0.733s0.732-1.078 0.732-1.767v-11.667c0-0.183-0.059-0.352-0.157-0.487-0.003-0.004-0.006-0.008-0.009-0.013zM3.333 5.833h13.333v10.833c0 0.23-0.092 0.438-0.244 0.589s-0.359 0.244-0.589 0.244h-11.667c-0.23 0-0.437-0.093-0.589-0.244s-0.244-0.359-0.244-0.589zM12.5 8.333c0 0.691-0.279 1.314-0.732 1.768s-1.077 0.732-1.768 0.732-1.314-0.279-1.768-0.732-0.732-1.077-0.732-1.768c0-0.46-0.373-0.833-0.833-0.833s-0.833 0.373-0.833 0.833c0 1.15 0.467 2.193 1.22 2.947s1.797 1.22 2.947 1.22 2.193-0.468 2.947-1.22 1.22-1.797 1.22-2.947c0-0.46-0.373-0.833-0.833-0.833s-0.833 0.373-0.833 0.833z"></path>
</symbol>
<symbol id="icon-shopping-cart" viewBox="0 0 20 20">
<path d="M9.167 17.5c0-0.46-0.188-0.878-0.488-1.178s-0.718-0.488-1.178-0.488-0.878 0.188-1.178 0.488-0.488 0.718-0.488 1.178 0.188 0.878 0.488 1.178 0.718 0.488 1.178 0.488 0.878-0.188 1.178-0.488 0.488-0.718 0.488-1.178zM18.333 17.5c0-0.46-0.188-0.878-0.488-1.178s-0.718-0.488-1.178-0.488-0.878 0.188-1.178 0.488-0.488 0.718-0.488 1.178 0.188 0.878 0.488 1.178 0.718 0.488 1.178 0.488 0.878-0.188 1.178-0.488 0.488-0.718 0.488-1.178zM6.018 5.833h12.142l-1.142 5.993c-0.038 0.19-0.138 0.354-0.277 0.473-0.15 0.13-0.344 0.205-0.573 0.201h-8.112c-0.193 0.002-0.376-0.059-0.522-0.169-0.158-0.119-0.274-0.293-0.316-0.502zM0.833 1.667h2.65l0.707 3.533c0.090 0.364 0.418 0.634 0.81 0.634h1.018l-0.333-1.667h-0.684c-0.46 0-0.833 0.373-0.833 0.833 0 0.044 0.003 0.088 0.010 0.129 0.003 0.023 0.008 0.048 0.014 0.070l1.393 6.956c0.124 0.626 0.475 1.152 0.95 1.509 0.434 0.327 0.975 0.511 1.545 0.502h8.088c0.623 0.012 1.212-0.217 1.662-0.606 0.412-0.355 0.707-0.844 0.821-1.402l1.335-7.002c0.086-0.452-0.21-0.888-0.662-0.975-0.054-0.011-0.108-0.016-0.156-0.015h-13.483l-0.7-3.497c-0.078-0.385-0.414-0.67-0.817-0.67h-3.333c-0.46 0-0.833 0.373-0.833 0.833s0.373 0.833 0.833 0.833z"></path>
</symbol>
<symbol id="icon-smartphone" viewBox="0 0 20 20">
<path d="M5.833 0.833c-0.69 0-1.317 0.281-1.767 0.732s-0.732 1.077-0.732 1.767v13.333c0 0.69 0.281 1.317 0.732 1.768s1.077 0.732 1.767 0.732h8.333c0.69 0 1.317-0.281 1.768-0.732s0.733-1.078 0.733-1.768v-13.333c0-0.69-0.281-1.317-0.733-1.767s-1.078-0.733-1.768-0.733zM5.833 2.5h8.333c0.23 0 0.438 0.092 0.589 0.244s0.244 0.359 0.244 0.589v13.333c0 0.23-0.092 0.437-0.244 0.589s-0.359 0.244-0.589 0.244h-8.333c-0.23 0-0.437-0.092-0.589-0.244s-0.244-0.359-0.244-0.589v-13.333c0-0.23 0.093-0.438 0.244-0.589s0.359-0.244 0.589-0.244zM10 15.833c0.46 0 0.833-0.373 0.833-0.833s-0.373-0.833-0.833-0.833-0.833 0.373-0.833 0.833 0.373 0.833 0.833 0.833z"></path>
</symbol>
<symbol id="icon-trash" viewBox="0 0 20 20">
<path d="M15 5.833v10.833c0 0.23-0.092 0.438-0.244 0.589s-0.359 0.244-0.589 0.244h-8.333c-0.23 0-0.438-0.093-0.589-0.244s-0.244-0.359-0.244-0.589v-10.833zM14.167 4.167v-0.833c0-0.69-0.281-1.317-0.733-1.767s-1.077-0.733-1.767-0.733h-3.333c-0.69 0-1.317 0.281-1.768 0.733s-0.733 1.077-0.733 1.767v0.833h-3.333c-0.46 0-0.833 0.373-0.833 0.833s0.373 0.833 0.833 0.833h0.833v10.833c0 0.69 0.281 1.317 0.732 1.768s1.077 0.732 1.768 0.732h8.333c0.69 0 1.317-0.281 1.768-0.732s0.732-1.078 0.732-1.768v-10.833h0.833c0.46 0 0.833-0.373 0.833-0.833s-0.373-0.833-0.833-0.833zM7.5 4.167v-0.833c0-0.23 0.092-0.438 0.244-0.589s0.359-0.244 0.589-0.244h3.333c0.23 0 0.438 0.092 0.589 0.244s0.244 0.359 0.244 0.589v0.833z"></path>
</symbol>
<symbol id="icon-trash-2" viewBox="0 0 20 20">
<path d="M15 5.833v10.833c0 0.23-0.092 0.438-0.244 0.589s-0.359 0.244-0.589 0.244h-8.333c-0.23 0-0.438-0.093-0.589-0.244s-0.244-0.359-0.244-0.589v-10.833zM14.167 4.167v-0.833c0-0.69-0.281-1.317-0.733-1.767s-1.077-0.733-1.767-0.733h-3.333c-0.69 0-1.317 0.281-1.768 0.733s-0.733 1.077-0.733 1.767v0.833h-3.333c-0.46 0-0.833 0.373-0.833 0.833s0.373 0.833 0.833 0.833h0.833v10.833c0 0.69 0.281 1.317 0.732 1.768s1.077 0.732 1.768 0.732h8.333c0.69 0 1.317-0.281 1.768-0.732s0.732-1.078 0.732-1.768v-10.833h0.833c0.46 0 0.833-0.373 0.833-0.833s-0.373-0.833-0.833-0.833zM7.5 4.167v-0.833c0-0.23 0.092-0.438 0.244-0.589s0.359-0.244 0.589-0.244h3.333c0.23 0 0.438 0.092 0.589 0.244s0.244 0.359 0.244 0.589v0.833zM7.5 9.167v5c0 0.46 0.373 0.833 0.833 0.833s0.833-0.373 0.833-0.833v-5c0-0.46-0.373-0.833-0.833-0.833s-0.833 0.373-0.833 0.833zM10.833 9.167v5c0 0.46 0.373 0.833 0.833 0.833s0.833-0.373 0.833-0.833v-5c0-0.46-0.373-0.833-0.833-0.833s-0.833 0.373-0.833 0.833z"></path>
</symbol>
<symbol id="icon-truck" viewBox="0 0 20 20">
<path d="M12.5 12.5h-10.833v-9.167h10.833v3.333zM14.167 7.5h2.155l2.012 2.012v2.988h-4.167zM5.833 15.417c0 0.345-0.139 0.657-0.366 0.884s-0.539 0.366-0.884 0.366-0.657-0.139-0.884-0.366-0.366-0.539-0.366-0.884 0.139-0.657 0.366-0.884 0.539-0.366 0.884-0.366 0.657 0.139 0.884 0.366 0.366 0.539 0.366 0.884zM18.333 15.417c0-0.448-0.101-0.871-0.281-1.25h1.114c0.46 0 0.833-0.373 0.833-0.833v-4.167c0-0.213-0.082-0.427-0.244-0.589l-2.5-2.5c-0.151-0.151-0.359-0.244-0.589-0.244h-2.5v-3.333c0-0.46-0.373-0.833-0.833-0.833h-12.5c-0.46 0-0.833 0.373-0.833 0.833v10.833c0 0.46 0.373 0.833 0.833 0.833h1.114c-0.18 0.379-0.281 0.803-0.281 1.25 0 0.805 0.327 1.536 0.854 2.063s1.258 0.854 2.063 0.854 1.536-0.328 2.063-0.854 0.854-1.258 0.854-2.063c0-0.447-0.101-0.871-0.281-1.25h5.562c-0.18 0.379-0.281 0.803-0.281 1.25 0 0.805 0.328 1.536 0.854 2.063s1.258 0.854 2.063 0.854 1.536-0.328 2.063-0.854 0.854-1.258 0.854-2.063zM16.667 15.417c0 0.345-0.139 0.657-0.366 0.884s-0.539 0.366-0.884 0.366-0.657-0.139-0.884-0.366-0.366-0.539-0.366-0.884 0.139-0.657 0.366-0.884 0.539-0.366 0.884-0.366 0.657 0.139 0.884 0.366 0.366 0.539 0.366 0.884z"></path>
</symbol>
<symbol id="icon-x" viewBox="0 0 20 20">
<path d="M4.411 5.589l4.411 4.411-4.411 4.411c-0.326 0.326-0.326 0.853 0 1.178s0.853 0.326 1.178 0l4.411-4.411 4.411 4.411c0.326 0.326 0.853 0.326 1.178 0s0.326-0.853 0-1.178l-4.411-4.411 4.411-4.411c0.326-0.326 0.326-0.853 0-1.178s-0.853-0.326-1.178 0l-4.411 4.411-4.411-4.411c-0.326-0.326-0.853-0.326-1.178 0s-0.326 0.853 0 1.178z"></path>
</symbol>
<symbol id="icon-x-circle" viewBox="0 0 20 20">
<path d="M19.167 10c0-2.531-1.027-4.824-2.685-6.482s-3.951-2.685-6.482-2.685-4.824 1.027-6.482 2.685-2.685 3.951-2.685 6.482 1.027 4.824 2.685 6.482 3.951 2.685 6.482 2.685 4.824-1.027 6.482-2.685 2.685-3.951 2.685-6.482zM17.5 10c0 2.072-0.838 3.945-2.197 5.303s-3.232 2.197-5.303 2.197-3.945-0.838-5.303-2.197-2.197-3.232-2.197-5.303 0.838-3.945 2.197-5.303 3.232-2.197 5.303-2.197 3.945 0.838 5.303 2.197 2.197 3.232 2.197 5.303zM6.911 8.089l1.911 1.911-1.911 1.911c-0.326 0.326-0.326 0.853 0 1.178s0.853 0.326 1.178 0l1.911-1.911 1.911 1.911c0.326 0.326 0.853 0.326 1.178 0s0.326-0.853 0-1.178l-1.911-1.911 1.911-1.911c0.326-0.326 0.326-0.853 0-1.178s-0.853-0.326-1.178 0l-1.911 1.911-1.911-1.911c-0.326-0.326-0.853-0.326-1.178 0s-0.326 0.853 0 1.178z"></path>
</symbol>
</defs>
</svg>
